<svg width="1920" height="809" viewBox="0 0 1920 809" fill="none" xmlns="http://www.w3.org/2000/svg">
<rect y="60" width="1920" height="749" fill="#F5F5F5"/>
<mask id="mask0_405_177" style="mask-type:alpha" maskUnits="userSpaceOnUse" x="0" y="60" width="1920" height="749">
<rect y="60" width="1920" height="749" fill="#026132"/>
</mask>
<g mask="url(#mask0_405_177)">
<path d="M82.742 79.9712C47.1597 127.86 49.1532 188.121 51.0652 246.398C52.9764 304.229 54.9573 364.062 19.8711 411.283C-15.2151 458.504 -73.0527 473.89 -128.975 488.749C-158.94 496.714 -189.935 504.95 -217.182 517.994L-214.844 521.088C-187.824 508.171 -156.974 499.952 -127.111 492.035C-70.762 477.048 -12.4888 461.566 23.0936 413.677C58.6759 365.789 56.6824 305.527 54.7705 247.251C52.8593 189.419 50.8783 129.586 85.9645 82.3656C121.051 35.1449 178.888 19.7588 234.832 4.91509C291.181 -10.0721 349.454 -25.5541 385.037 -73.4426L381.835 -75.8211C346.737 -28.5845 288.912 -13.2143 232.968 1.6294C176.619 16.6166 118.346 32.0986 82.7634 79.9871L82.742 79.9712Z" fill="white"/>
<path d="M104.211 95.9234C68.6284 143.812 70.622 204.074 72.5339 262.35C74.4451 320.182 76.4261 380.015 41.3399 427.235C6.25367 474.456 -51.5839 489.842 -107.507 504.702C-137.472 512.666 -168.466 520.902 -195.714 533.946L-193.376 537.04C-166.356 524.124 -135.505 515.904 -105.642 507.987C-49.2932 493 8.97996 477.518 44.5623 429.63C80.1447 381.741 78.1512 321.479 76.2392 263.203C74.328 205.371 72.3471 145.538 107.433 98.3178C142.519 51.0971 200.357 35.7109 256.301 20.8672C312.65 5.88008 370.923 -9.60198 406.505 -57.4904L403.304 -59.8689C368.206 -12.6324 310.38 2.7379 254.436 17.5816C198.088 32.5688 139.815 48.0508 104.232 95.9392L104.211 95.9234Z" fill="white"/>
<path d="M125.679 111.875C90.097 159.764 92.0906 220.025 94.0025 278.302C95.9137 336.133 97.8733 395.951 62.7871 443.171C27.7009 490.392 -30.1367 505.778 -86.0594 520.638C-116.024 528.602 -147.019 536.838 -174.266 549.882L-171.928 552.976C-144.908 540.06 -114.058 531.84 -84.1947 523.923C-27.846 508.936 30.4272 493.454 66.0096 445.566C101.592 397.677 99.5984 337.415 97.6865 279.139C95.7753 221.307 93.8157 161.49 128.902 114.27C163.988 67.049 221.826 51.6628 277.748 36.8033C334.118 21.832 392.37 6.33405 427.953 -41.5544L424.751 -43.9329C389.653 3.30364 331.828 18.6739 275.905 33.5335C219.556 48.5207 161.283 64.0027 125.701 111.891L125.679 111.875Z" fill="white"/>
<path d="M147.17 127.843C111.587 175.732 113.581 235.993 115.493 294.27C117.404 352.101 119.385 411.934 84.2988 459.155C49.2126 506.376 -8.62499 521.762 -64.5477 536.621C-94.5127 544.586 -125.507 552.822 -152.755 565.866L-150.417 568.96C-123.397 556.043 -92.5463 547.824 -62.683 539.907C-6.33426 524.92 51.9389 509.438 87.5213 461.549C123.104 413.661 121.11 353.399 119.198 295.123C117.287 237.291 115.306 177.458 150.392 130.238C185.478 83.017 243.316 67.6308 299.26 52.7872C355.609 37.8 413.882 22.3179 449.464 -25.5705L446.263 -27.949C411.165 19.2875 353.339 34.6578 297.395 49.5015C241.047 64.4887 182.773 79.9707 147.191 127.859L147.17 127.843Z" fill="white"/>
<path d="M168.639 143.795C133.057 191.684 135.051 251.945 136.962 310.222C138.874 368.053 140.833 427.87 105.747 475.091C70.6609 522.312 12.8233 537.698 -43.0994 552.557C-73.0645 560.522 -104.059 568.758 -131.306 581.802L-128.968 584.896C-101.948 571.98 -71.098 563.76 -41.2347 555.843C15.114 540.856 73.3872 525.374 108.97 477.485C144.552 429.597 142.558 369.335 140.646 311.059C138.735 253.227 136.776 193.41 171.862 146.19C206.948 98.9689 264.786 83.5827 320.708 68.7232C377.078 53.7519 435.33 38.254 470.913 -9.63445L467.711 -12.013C432.613 35.2236 374.788 50.5938 318.865 65.4534C262.516 80.4406 204.243 95.9226 168.661 143.811L168.639 143.795Z" fill="white"/>
<path d="M190.108 159.747C154.526 207.635 156.519 267.897 158.431 326.173C160.342 384.005 162.302 443.822 127.216 491.043C92.1296 538.263 34.292 553.65 -21.6307 568.509C-51.5957 576.474 -82.5905 584.709 -109.838 597.753L-107.5 600.848C-80.4796 587.931 -49.6293 579.711 -19.766 571.795C36.5827 556.808 94.8559 541.326 130.438 493.437C166.021 445.549 164.027 385.287 162.115 327.011C160.204 269.179 158.223 209.346 193.309 162.125C228.395 114.905 286.233 99.5185 342.177 84.6749C398.526 69.6877 456.799 54.2056 492.381 6.31721L489.18 3.93868C454.082 51.1752 396.256 66.5455 340.334 81.405C283.985 96.3922 225.712 111.874 190.129 159.763L190.108 159.747Z" fill="white"/>
<path d="M211.577 175.699C175.995 223.587 177.988 283.849 179.9 342.126C181.811 399.957 183.771 459.774 148.685 506.995C113.598 554.216 55.7608 569.602 -0.161911 584.461C-30.127 592.426 -61.1217 600.662 -88.3689 613.705L-86.0309 616.8C-59.0109 603.883 -28.1606 595.664 1.70277 587.747C58.0515 572.76 116.325 557.278 151.907 509.389C187.489 461.501 185.496 401.239 183.584 342.963C181.673 285.131 179.692 225.298 214.778 178.078C249.864 130.857 307.702 115.471 363.646 100.627C419.994 85.6398 478.268 70.1578 513.85 22.2694L510.649 19.8908C475.551 67.1274 417.725 82.4977 361.802 97.3572C305.454 112.344 247.181 127.826 211.598 175.715L211.577 175.699Z" fill="white"/>
<path d="M1724.74 579.971C1689.16 627.86 1691.15 688.122 1693.06 746.398C1694.98 804.23 1696.96 864.063 1661.87 911.283C1626.78 958.504 1568.95 973.89 1513.02 988.75C1483.06 996.714 1452.06 1004.95 1424.82 1017.99L1427.16 1021.09C1454.18 1008.17 1485.03 999.952 1514.89 992.035C1571.24 977.048 1629.51 961.566 1665.09 913.678C1700.68 865.789 1698.68 805.527 1696.77 747.251C1694.86 689.419 1692.88 629.586 1727.96 582.366C1763.05 535.145 1820.89 519.759 1876.83 504.915C1933.18 489.928 1991.45 474.446 2027.04 426.558L2023.83 424.179C1988.74 471.416 1930.91 486.786 1874.97 501.63C1818.62 516.617 1760.35 532.099 1724.76 579.987L1724.74 579.971Z" fill="white"/>
<path d="M1746.21 595.923C1710.63 643.812 1712.62 704.074 1714.53 762.35C1716.45 820.182 1718.43 880.015 1683.34 927.235C1648.25 974.456 1590.42 989.842 1534.49 1004.7C1504.53 1012.67 1473.53 1020.9 1446.29 1033.95L1448.62 1037.04C1475.64 1024.12 1506.49 1015.9 1536.36 1007.99C1592.71 993 1650.98 977.518 1686.56 929.63C1722.14 881.741 1720.15 821.479 1718.24 763.203C1716.33 705.371 1714.35 645.538 1749.43 598.318C1784.52 551.097 1842.36 535.711 1898.3 520.867C1954.65 505.88 2012.92 490.398 2048.51 442.51L2045.3 440.131C2010.21 487.368 1952.38 502.738 1896.44 517.582C1840.09 532.569 1781.81 548.051 1746.23 595.939L1746.21 595.923Z" fill="white"/>
<path d="M1767.68 611.875C1732.1 659.764 1734.09 720.025 1736 778.302C1737.91 836.133 1739.87 895.951 1704.79 943.171C1669.7 990.392 1611.86 1005.78 1555.94 1020.64C1525.98 1028.6 1494.98 1036.84 1467.73 1049.88L1470.07 1052.98C1497.09 1040.06 1527.94 1031.84 1557.81 1023.92C1614.15 1008.94 1672.43 993.454 1708.01 945.566C1743.59 897.677 1741.6 837.415 1739.69 779.139C1737.78 721.307 1735.82 661.49 1770.9 614.27C1805.99 567.049 1863.83 551.663 1919.75 536.803C1976.12 521.832 2034.37 506.334 2069.95 458.446L2066.75 456.067C2031.65 503.304 1973.83 518.674 1917.91 533.533C1861.56 548.521 1803.28 564.003 1767.7 611.891L1767.68 611.875Z" fill="white"/>
<path d="M1789.17 627.843C1753.59 675.732 1755.58 735.993 1757.49 794.27C1759.4 852.101 1761.39 911.934 1726.3 959.155C1691.21 1006.38 1633.38 1021.76 1577.45 1036.62C1547.49 1044.59 1516.49 1052.82 1489.25 1065.87L1491.58 1068.96C1518.6 1056.04 1549.45 1047.82 1579.32 1039.91C1635.67 1024.92 1693.94 1009.44 1729.52 961.549C1765.1 913.661 1763.11 853.399 1761.2 795.123C1759.29 737.291 1757.31 677.458 1792.39 630.238C1827.48 583.017 1885.32 567.631 1941.26 552.787C1997.61 537.8 2055.88 522.318 2091.46 474.43L2088.26 472.051C2053.17 519.288 1995.34 534.658 1939.4 549.501C1883.05 564.489 1824.77 579.971 1789.19 627.859L1789.17 627.843Z" fill="white"/>
<path d="M1810.64 643.795C1775.06 691.684 1777.05 751.945 1778.96 810.222C1780.87 868.053 1782.83 927.87 1747.75 975.091C1712.66 1022.31 1654.82 1037.7 1598.9 1052.56C1568.94 1060.52 1537.94 1068.76 1510.69 1081.8L1513.03 1084.9C1540.05 1071.98 1570.9 1063.76 1600.76 1055.84C1657.11 1040.86 1715.39 1025.37 1750.97 977.485C1786.55 929.597 1784.56 869.335 1782.65 811.059C1780.73 753.227 1778.78 693.41 1813.86 646.19C1848.95 598.969 1906.79 583.583 1962.71 568.723C2019.08 553.752 2077.33 538.254 2112.91 490.366L2109.71 487.987C2074.61 535.224 2016.79 550.594 1960.86 565.453C1904.52 580.441 1846.24 595.923 1810.66 643.811L1810.64 643.795Z" fill="white"/>
<path d="M1832.11 659.747C1796.53 707.635 1798.52 767.897 1800.43 826.174C1802.34 884.005 1804.3 943.822 1769.22 991.043C1734.13 1038.26 1676.29 1053.65 1620.37 1068.51C1590.4 1076.47 1559.41 1084.71 1532.16 1097.75L1534.5 1100.85C1561.52 1087.93 1592.37 1079.71 1622.23 1071.8C1678.58 1056.81 1736.86 1041.33 1772.44 993.437C1808.02 945.549 1806.03 885.287 1804.11 827.011C1802.2 769.179 1800.22 709.346 1835.31 662.126C1870.39 614.905 1928.23 599.519 1984.18 584.675C2040.53 569.688 2098.8 554.206 2134.38 506.317L2131.18 503.939C2096.08 551.175 2038.26 566.546 1982.33 581.405C1925.98 596.392 1867.71 611.874 1832.13 659.763L1832.11 659.747Z" fill="white"/>
<path d="M1853.58 675.699C1817.99 723.588 1819.99 783.849 1821.9 842.126C1823.81 899.957 1825.77 959.775 1790.68 1007C1755.6 1054.22 1697.76 1069.6 1641.84 1084.46C1611.87 1092.43 1580.88 1100.66 1553.63 1113.71L1555.97 1116.8C1582.99 1103.88 1613.84 1095.66 1643.7 1087.75C1700.05 1072.76 1758.32 1057.28 1793.91 1009.39C1829.49 961.501 1827.5 901.239 1825.58 842.963C1823.67 785.131 1821.69 725.298 1856.78 678.078C1891.86 630.857 1949.7 615.471 2005.65 600.627C2061.99 585.64 2120.27 570.158 2155.85 522.27L2152.65 519.891C2117.55 567.128 2059.73 582.498 2003.8 597.357C1947.45 612.345 1889.18 627.827 1853.6 675.715L1853.58 675.699Z" fill="white"/>
</g>
<path d="M1511.85 5.71429C1513.43 5.71429 1514.7 4.4351 1514.7 2.85715C1514.7 1.27919 1513.43 0 1511.85 0C1510.28 0 1509 1.27919 1509 2.85715C1509 4.4351 1510.28 5.71429 1511.85 5.71429Z" fill="#026132"/>
<path d="M1546.07 5.71429C1547.64 5.71429 1548.92 4.4351 1548.92 2.85714C1548.92 1.27919 1547.64 0 1546.07 0C1544.49 0 1543.22 1.27919 1543.22 2.85714C1543.22 4.4351 1544.49 5.71429 1546.07 5.71429Z" fill="#026132"/>
<path d="M1580.28 5.71429C1581.86 5.71429 1583.13 4.4351 1583.13 2.85715C1583.13 1.27919 1581.86 0 1580.28 0C1578.71 0 1577.43 1.27919 1577.43 2.85715C1577.43 4.4351 1578.71 5.71429 1580.28 5.71429Z" fill="#026132"/>
<path d="M1614.5 5.71429C1616.07 5.71429 1617.35 4.4351 1617.35 2.85715C1617.35 1.27919 1616.07 0 1614.5 0C1612.93 0 1611.65 1.27919 1611.65 2.85715C1611.65 4.4351 1612.93 5.71429 1614.5 5.71429Z" fill="#026132"/>
<path d="M1648.72 5.71429C1650.29 5.71429 1651.57 4.4351 1651.57 2.85714C1651.57 1.27919 1650.29 0 1648.72 0C1647.14 0 1645.86 1.27919 1645.86 2.85714C1645.86 4.4351 1647.14 5.71429 1648.72 5.71429Z" fill="#026132"/>
<path d="M1717.15 5.71429C1718.72 5.71429 1720 4.4351 1720 2.85714C1720 1.27919 1718.72 0 1717.15 0C1715.57 0 1714.3 1.27919 1714.3 2.85714C1714.3 4.4351 1715.57 5.71429 1717.15 5.71429Z" fill="#026132"/>
<path d="M1682.93 5.71429C1684.51 5.71429 1685.78 4.4351 1685.78 2.85714C1685.78 1.27919 1684.51 0 1682.93 0C1681.36 0 1680.08 1.27919 1680.08 2.85714C1680.08 4.4351 1681.36 5.71429 1682.93 5.71429Z" fill="#026132"/>
<path d="M1682.93 45.7143C1681.36 45.7143 1680.08 44.4351 1680.08 42.8571C1680.08 41.2792 1681.36 40 1682.93 40C1684.51 40 1685.78 41.2792 1685.78 42.8571C1685.78 44.4351 1684.51 45.7143 1682.93 45.7143Z" fill="#026132"/>
<path d="M1648.72 45.7143C1647.14 45.7143 1645.86 44.4351 1645.86 42.8571C1645.86 41.2792 1647.14 40 1648.72 40C1650.29 40 1651.57 41.2792 1651.57 42.8571C1651.57 44.4351 1650.29 45.7143 1648.72 45.7143Z" fill="#026132"/>
<path d="M1717.15 45.7143C1715.57 45.7143 1714.3 44.4351 1714.3 42.8571C1714.3 41.2792 1715.57 40 1717.15 40C1718.72 40 1720 41.2792 1720 42.8571C1720 44.4351 1718.72 45.7143 1717.15 45.7143Z" fill="#026132"/>
<path d="M1614.5 45.7143C1612.93 45.7143 1611.65 44.4351 1611.65 42.8571C1611.65 41.2792 1612.93 40 1614.5 40C1616.07 40 1617.35 41.2792 1617.35 42.8571C1617.35 44.4351 1616.07 45.7143 1614.5 45.7143Z" fill="#026132"/>
<path d="M1580.28 45.7143C1578.71 45.7143 1577.43 44.4351 1577.43 42.8571C1577.43 41.2792 1578.71 40 1580.28 40C1581.86 40 1583.14 41.2792 1583.14 42.8571C1583.14 44.4351 1581.86 45.7143 1580.28 45.7143Z" fill="#026132"/>
<path d="M1546.07 45.7143C1544.49 45.7143 1543.22 44.4351 1543.22 42.8571C1543.22 41.2792 1544.49 40 1546.07 40C1547.64 40 1548.92 41.2792 1548.92 42.8571C1548.92 44.4351 1547.64 45.7143 1546.07 45.7143Z" fill="#026132"/>
<path d="M1511.85 45.7143C1510.28 45.7143 1509 44.4351 1509 42.8571C1509 41.2792 1510.28 40 1511.85 40C1513.43 40 1514.7 41.2792 1514.7 42.8571C1514.7 44.4351 1513.43 45.7143 1511.85 45.7143Z" fill="#026132"/>
<path d="M1511.85 85.7143C1513.43 85.7143 1514.7 84.4351 1514.7 82.8571C1514.7 81.2792 1513.43 80 1511.85 80C1510.28 80 1509 81.2792 1509 82.8571C1509 84.4351 1510.28 85.7143 1511.85 85.7143Z" fill="#026132"/>
<path d="M1546.07 85.7143C1547.64 85.7143 1548.92 84.4351 1548.92 82.8571C1548.92 81.2792 1547.64 80 1546.07 80C1544.49 80 1543.22 81.2792 1543.22 82.8571C1543.22 84.4351 1544.49 85.7143 1546.07 85.7143Z" fill="#026132"/>
<path d="M1580.28 85.7143C1581.86 85.7143 1583.13 84.4351 1583.13 82.8571C1583.13 81.2792 1581.86 80 1580.28 80C1578.71 80 1577.43 81.2792 1577.43 82.8571C1577.43 84.4351 1578.71 85.7143 1580.28 85.7143Z" fill="#026132"/>
<path d="M1614.5 85.7143C1616.07 85.7143 1617.35 84.4351 1617.35 82.8571C1617.35 81.2792 1616.07 80 1614.5 80C1612.93 80 1611.65 81.2792 1611.65 82.8571C1611.65 84.4351 1612.93 85.7143 1614.5 85.7143Z" fill="#026132"/>
<path d="M1648.72 85.7143C1650.29 85.7143 1651.57 84.4351 1651.57 82.8571C1651.57 81.2792 1650.29 80 1648.72 80C1647.14 80 1645.86 81.2792 1645.86 82.8571C1645.86 84.4351 1647.14 85.7143 1648.72 85.7143Z" fill="#026132"/>
<path d="M1717.15 85.7143C1718.72 85.7143 1720 84.4351 1720 82.8571C1720 81.2792 1718.72 80 1717.15 80C1715.57 80 1714.3 81.2792 1714.3 82.8571C1714.3 84.4351 1715.57 85.7143 1717.15 85.7143Z" fill="#026132"/>
<path d="M1682.93 85.7143C1684.51 85.7143 1685.78 84.4351 1685.78 82.8571C1685.78 81.2792 1684.51 80 1682.93 80C1681.36 80 1680.08 81.2792 1680.08 82.8571C1680.08 84.4351 1681.36 85.7143 1682.93 85.7143Z" fill="#026132"/>
<path d="M1682.93 125.714C1681.36 125.714 1680.08 124.435 1680.08 122.857C1680.08 121.279 1681.36 120 1682.93 120C1684.51 120 1685.78 121.279 1685.78 122.857C1685.78 124.435 1684.51 125.714 1682.93 125.714Z" fill="#026132"/>
<path d="M1682.93 200C1681.36 200 1680.08 198.721 1680.08 197.143C1680.08 195.565 1681.36 194.286 1682.93 194.286C1684.51 194.286 1685.78 195.565 1685.78 197.143C1685.78 198.721 1684.51 200 1682.93 200Z" fill="#026132"/>
<path d="M1648.72 125.714C1647.14 125.714 1645.86 124.435 1645.86 122.857C1645.86 121.279 1647.14 120 1648.72 120C1650.29 120 1651.57 121.279 1651.57 122.857C1651.57 124.435 1650.29 125.714 1648.72 125.714Z" fill="#026132"/>
<path d="M1648.72 200C1647.14 200 1645.86 198.721 1645.86 197.143C1645.86 195.565 1647.14 194.286 1648.72 194.286C1650.29 194.286 1651.57 195.565 1651.57 197.143C1651.57 198.721 1650.29 200 1648.72 200Z" fill="#026132"/>
<path d="M1717.15 125.714C1715.57 125.714 1714.3 124.435 1714.3 122.857C1714.3 121.279 1715.57 120 1717.15 120C1718.72 120 1720 121.279 1720 122.857C1720 124.435 1718.72 125.714 1717.15 125.714Z" fill="#026132"/>
<path d="M1717.15 200C1715.57 200 1714.3 198.721 1714.3 197.143C1714.3 195.565 1715.57 194.286 1717.15 194.286C1718.72 194.286 1720 195.565 1720 197.143C1720 198.721 1718.72 200 1717.15 200Z" fill="#026132"/>
<path d="M1614.5 125.714C1612.93 125.714 1611.65 124.435 1611.65 122.857C1611.65 121.279 1612.93 120 1614.5 120C1616.07 120 1617.35 121.279 1617.35 122.857C1617.35 124.435 1616.07 125.714 1614.5 125.714Z" fill="#026132"/>
<path d="M1614.5 200C1612.93 200 1611.65 198.721 1611.65 197.143C1611.65 195.565 1612.93 194.286 1614.5 194.286C1616.07 194.286 1617.35 195.565 1617.35 197.143C1617.35 198.721 1616.07 200 1614.5 200Z" fill="#026132"/>
<path d="M1580.28 125.714C1578.71 125.714 1577.43 124.435 1577.43 122.857C1577.43 121.279 1578.71 120 1580.28 120C1581.86 120 1583.14 121.279 1583.14 122.857C1583.14 124.435 1581.86 125.714 1580.28 125.714Z" fill="#026132"/>
<path d="M1580.28 200C1578.71 200 1577.43 198.721 1577.43 197.143C1577.43 195.565 1578.71 194.286 1580.28 194.286C1581.86 194.286 1583.14 195.565 1583.14 197.143C1583.14 198.721 1581.86 200 1580.28 200Z" fill="#026132"/>
<path d="M1546.07 125.714C1544.49 125.714 1543.22 124.435 1543.22 122.857C1543.22 121.279 1544.49 120 1546.07 120C1547.64 120 1548.92 121.279 1548.92 122.857C1548.92 124.435 1547.64 125.714 1546.07 125.714Z" fill="#026132"/>
<path d="M1546.07 200C1544.49 200 1543.22 198.721 1543.22 197.143C1543.22 195.565 1544.49 194.286 1546.07 194.286C1547.64 194.286 1548.92 195.565 1548.92 197.143C1548.92 198.721 1547.64 200 1546.07 200Z" fill="#026132"/>
<path d="M1511.85 125.714C1510.28 125.714 1509 124.435 1509 122.857C1509 121.279 1510.28 120 1511.85 120C1513.43 120 1514.7 121.279 1514.7 122.857C1514.7 124.435 1513.43 125.714 1511.85 125.714Z" fill="#026132"/>
<path d="M1511.85 200C1510.28 200 1509 198.721 1509 197.143C1509 195.565 1510.28 194.286 1511.85 194.286C1513.43 194.286 1514.7 195.565 1514.7 197.143C1514.7 198.721 1513.43 200 1511.85 200Z" fill="#026132"/>
<path d="M1511.85 165.714C1513.43 165.714 1514.7 164.435 1514.7 162.857C1514.7 161.279 1513.43 160 1511.85 160C1510.28 160 1509 161.279 1509 162.857C1509 164.435 1510.28 165.714 1511.85 165.714Z" fill="#026132"/>
<path d="M1546.07 165.714C1547.64 165.714 1548.92 164.435 1548.92 162.857C1548.92 161.279 1547.64 160 1546.07 160C1544.49 160 1543.22 161.279 1543.22 162.857C1543.22 164.435 1544.49 165.714 1546.07 165.714Z" fill="#026132"/>
<path d="M1580.28 165.714C1581.86 165.714 1583.13 164.435 1583.13 162.857C1583.13 161.279 1581.86 160 1580.28 160C1578.71 160 1577.43 161.279 1577.43 162.857C1577.43 164.435 1578.71 165.714 1580.28 165.714Z" fill="#026132"/>
<path d="M1614.5 165.714C1616.07 165.714 1617.35 164.435 1617.35 162.857C1617.35 161.279 1616.07 160 1614.5 160C1612.93 160 1611.65 161.279 1611.65 162.857C1611.65 164.435 1612.93 165.714 1614.5 165.714Z" fill="#026132"/>
<path d="M1648.72 165.714C1650.29 165.714 1651.57 164.435 1651.57 162.857C1651.57 161.279 1650.29 160 1648.72 160C1647.14 160 1645.86 161.279 1645.86 162.857C1645.86 164.435 1647.14 165.714 1648.72 165.714Z" fill="#026132"/>
<path d="M1717.15 165.714C1718.72 165.714 1720 164.435 1720 162.857C1720 161.279 1718.72 160 1717.15 160C1715.57 160 1714.3 161.279 1714.3 162.857C1714.3 164.435 1715.57 165.714 1717.15 165.714Z" fill="#026132"/>
<path d="M1682.93 165.714C1684.51 165.714 1685.78 164.435 1685.78 162.857C1685.78 161.279 1684.51 160 1682.93 160C1681.36 160 1680.08 161.279 1680.08 162.857C1680.08 164.435 1681.36 165.714 1682.93 165.714Z" fill="#026132"/>
</svg>
