<svg width="1370" height="284" viewBox="0 0 1370 284" fill="none" xmlns="http://www.w3.org/2000/svg">
<g filter="url(#filter0_d_405_141)">
<rect x="40" y="30" width="1290" height="204" rx="10" fill="white"/>
</g>
<mask id="mask0_405_141" style="mask-type:alpha" maskUnits="userSpaceOnUse" x="40" y="30" width="1290" height="204">
<rect x="40" y="30" width="1290" height="204" rx="10" fill="#DDDDDD"/>
</mask>
<g mask="url(#mask0_405_141)">
<path d="M640.664 260.993C660.214 254.34 679.731 247.15 698.584 240.167C774.462 212.17 852.961 183.203 951.542 183.203C1050.12 183.203 1128.62 212.15 1204.53 240.167C1223.42 247.13 1242.9 254.32 1262.45 260.993L1264.84 258.266C1245.36 251.634 1225.91 244.444 1207.06 237.501C1130.58 209.278 1051.52 180.104 951.542 180.104C851.567 180.104 772.503 209.278 696.028 237.481C677.208 244.423 657.725 251.613 638.241 258.245L640.631 260.973L640.664 260.993Z" fill="#F5F5F5"/>
<path d="M-446.748 261.076C-401.639 250.105 -359.319 234.485 -318.393 219.402C-242.483 191.405 -164.016 162.438 -65.402 162.438C33.2122 162.438 111.679 191.385 187.556 219.381C228.482 234.485 270.835 250.105 315.911 261.076L317.736 258.183C273.026 247.315 230.872 231.757 190.079 216.716C113.604 188.492 34.5398 159.339 -65.4352 159.339C-165.41 159.339 -244.474 188.513 -320.949 216.736C-361.709 231.778 -403.863 247.315 -448.573 258.204L-446.748 261.097V261.076Z" fill="#F5F5F5"/>
<path d="M570.197 261.076C615.305 250.105 657.625 234.485 698.551 219.381C774.429 191.385 852.928 162.417 951.542 162.417C1050.16 162.417 1128.62 191.364 1204.5 219.36C1245.16 234.361 1287.22 249.878 1331.99 260.828L1333.82 257.936C1289.44 247.068 1247.55 231.633 1207.06 216.674C1130.58 188.471 1051.52 159.297 951.542 159.297C851.567 159.297 772.503 188.471 696.028 216.674C655.268 231.716 613.114 247.274 568.404 258.142L570.23 261.035L570.197 261.076Z" fill="#F5F5F5"/>
<path d="M443.07 255.973C543.045 255.973 622.109 226.799 698.584 198.596C774.462 170.599 852.961 141.632 951.542 141.632C1050.12 141.632 1128.62 170.579 1204.5 198.575C1245.16 213.575 1287.22 229.092 1331.99 240.043L1333.82 237.15C1289.44 226.282 1247.55 210.848 1207.06 195.889C1130.58 167.686 1051.52 138.512 951.542 138.512C851.567 138.512 772.503 167.686 696.028 195.889C620.151 223.885 541.651 252.853 443.07 252.853C344.489 252.853 265.99 223.906 190.112 195.889C113.637 167.686 34.5735 138.512 -65.4016 138.512V141.611C33.2125 141.611 111.679 170.558 187.556 198.575C264.031 226.778 343.095 255.952 443.07 255.952V255.973Z" fill="#F5F5F5"/>
<path d="M443.07 235.187C543.045 235.187 622.109 206.013 698.584 177.789C774.462 149.793 852.961 120.826 951.542 120.826C1050.12 120.826 1128.62 149.772 1204.5 177.789C1245.16 192.79 1287.22 208.307 1331.99 219.257L1333.82 216.364C1289.44 205.496 1247.55 190.042 1207.06 175.103C1130.58 146.88 1051.52 117.706 951.542 117.706C851.567 117.706 772.503 146.88 696.028 175.103C620.151 203.1 541.651 232.067 443.07 232.067C344.489 232.067 265.99 203.12 190.112 175.103C113.637 146.88 34.5735 117.706 -65.4016 117.706V120.805C33.2125 120.805 111.679 149.752 187.556 177.769C264.031 205.992 343.095 235.166 443.07 235.166V235.187Z" fill="#F5F5F5"/>
<path d="M443.07 214.402C543.045 214.402 622.109 185.227 698.584 157.024C774.462 129.028 852.961 100.061 951.542 100.061C1050.12 100.061 1128.62 129.007 1204.5 157.004C1245.16 172.004 1287.22 187.521 1331.99 198.472L1333.82 195.579C1289.44 184.711 1247.55 169.277 1207.06 154.318C1130.58 126.115 1051.52 96.9407 951.542 96.9407C851.567 96.9407 772.503 126.115 696.028 154.318C620.151 182.314 541.651 211.282 443.07 211.282C344.489 211.282 265.99 182.335 190.112 154.318C113.637 126.115 34.5735 96.9407 -65.4016 96.9407V100.04C33.2125 100.04 111.679 128.987 187.556 157.004C264.031 185.207 343.095 214.381 443.07 214.381V214.402Z" fill="#F5F5F5"/>
<path d="M443.07 193.616C543.045 193.616 622.109 164.442 698.584 136.239C774.462 108.243 852.961 79.2752 951.542 79.2752C1050.12 79.2752 1128.62 108.222 1204.5 136.218C1245.16 151.219 1287.22 166.735 1331.99 177.686L1333.82 174.793C1289.44 163.925 1247.55 148.491 1207.06 133.532C1130.58 105.329 1051.52 76.1553 951.542 76.1553C851.567 76.1553 772.503 105.329 696.028 133.532C620.151 161.529 541.651 190.496 443.07 190.496C344.489 190.496 265.99 161.549 190.112 133.532C113.637 105.329 34.5735 76.1553 -65.4016 76.1553V79.2545C33.2125 79.2545 111.679 108.201 187.556 136.218C264.031 164.421 343.095 193.595 443.07 193.595V193.616Z" fill="#F5F5F5"/>
<path d="M443.07 172.831C543.045 172.831 622.109 143.657 698.584 115.454C774.462 87.4573 852.961 58.5104 951.542 58.5104C1050.12 58.5104 1128.62 87.4573 1204.5 115.454C1245.16 130.454 1287.22 145.971 1331.99 156.921L1333.82 154.029C1289.44 143.161 1247.55 127.727 1207.06 112.768C1130.58 84.5647 1051.52 55.3906 951.542 55.3906C851.567 55.3906 772.503 84.5647 696.028 112.768C620.151 140.764 541.651 169.711 443.07 169.711C344.489 169.711 265.99 140.764 190.112 112.768C113.637 84.544 34.5735 55.3906 -65.4016 55.3906V58.4898C33.2125 58.4898 111.679 87.4366 187.556 115.433C264.031 143.636 343.095 172.81 443.07 172.81V172.831Z" fill="#F5F5F5"/>
<path d="M443.07 152.024C543.045 152.024 622.109 122.85 698.584 94.6473C774.462 66.651 852.961 37.6835 951.542 37.6835C1050.12 37.6835 1128.62 66.6303 1204.5 94.6267C1245.16 109.627 1287.22 125.144 1331.99 136.094L1333.82 133.202C1289.44 122.334 1247.55 106.9 1207.06 91.9407C1130.58 63.7377 1051.52 34.5636 951.542 34.5636C851.567 34.5636 772.503 63.7377 696.028 91.9407C620.151 119.937 541.651 148.905 443.07 148.905C344.489 148.905 265.99 119.958 190.112 91.9407C113.637 63.7377 34.5735 34.5636 -65.4016 34.5636V37.6628C33.2125 37.6628 111.679 66.6096 187.556 94.6267C264.031 122.83 343.095 152.004 443.07 152.004V152.024Z" fill="#F5F5F5"/>
<path d="M448.472 132.44C548.447 132.44 627.511 103.266 703.986 75.0631C779.863 47.0667 858.363 18.1199 956.944 18.1199C1055.52 18.1199 1134.02 47.0667 1209.9 75.0631C1250.56 90.0634 1292.62 105.58 1337.39 116.531L1339.22 113.638C1294.84 102.77 1252.95 87.336 1212.46 72.3771C1135.98 44.1741 1056.92 15 956.944 15C856.969 15 777.905 44.1741 701.43 72.3771C625.553 100.373 547.053 129.32 448.472 129.32C349.891 129.32 271.391 100.373 195.514 72.3771C119.039 44.1534 39.9751 15 -60 15V18.0992C38.6141 18.0992 117.081 47.0461 192.958 75.0424C269.433 103.245 348.497 132.419 448.472 132.419V132.44Z" fill="#F5F5F5"/>
<path d="M443.07 110.453C543.045 110.453 622.109 81.2794 698.584 53.0765C774.462 25.0801 852.961 -3.86672 951.542 -3.86672C1050.12 -3.86672 1128.62 25.0801 1204.5 53.0765C1245.16 68.0767 1287.22 83.5935 1331.99 94.5441L1333.82 91.6515C1289.44 80.7836 1247.55 65.3494 1207.06 50.3904C1130.58 22.1875 1051.52 -6.98663 951.542 -6.98663C851.567 -6.98663 772.503 22.1875 696.028 50.3904C620.151 78.3868 541.651 107.354 443.07 107.354C344.489 107.354 265.99 78.4075 190.112 50.3904C113.637 22.1875 34.5735 -6.98663 -65.4016 -6.98663V-3.8874C33.2125 -3.8874 111.679 25.0594 187.556 53.0558C264.031 81.2588 343.095 110.433 443.07 110.433V110.453Z" fill="#F5F5F5"/>
<path d="M443.07 89.668C543.045 89.668 622.109 60.4939 698.584 32.2909C774.462 4.29456 852.961 -24.6523 951.542 -24.6523C1050.12 -24.6523 1128.62 4.29456 1204.5 32.2909C1245.16 47.2912 1287.22 62.808 1331.99 73.7586L1333.82 70.866C1289.44 59.998 1247.55 44.5639 1207.06 29.6049C1130.58 1.40194 1051.52 -27.7722 951.542 -27.7722C851.567 -27.7722 772.503 1.40194 696.028 29.6049C620.151 57.6013 541.651 86.5687 443.07 86.5687C344.489 86.5687 265.99 57.622 190.112 29.6049C113.637 1.40194 34.5735 -27.7722 -65.4016 -27.7722V-24.6729C33.2125 -24.6729 111.679 4.27387 187.556 32.2702C264.031 60.4732 343.095 89.6473 443.07 89.6473V89.668Z" fill="#F5F5F5"/>
</g>
<defs>
<filter id="filter0_d_405_141" x="0" y="0" width="1370" height="284" filterUnits="userSpaceOnUse" color-interpolation-filters="sRGB">
<feFlood flood-opacity="0" result="BackgroundImageFix"/>
<feColorMatrix in="SourceAlpha" type="matrix" values="0 0 0 0 0 0 0 0 0 0 0 0 0 0 0 0 0 0 127 0" result="hardAlpha"/>
<feOffset dy="10"/>
<feGaussianBlur stdDeviation="20"/>
<feComposite in2="hardAlpha" operator="out"/>
<feColorMatrix type="matrix" values="0 0 0 0 0.160784 0 0 0 0 0.160784 0 0 0 0 0.160784 0 0 0 0.1 0"/>
<feBlend mode="normal" in2="BackgroundImageFix" result="effect1_dropShadow_405_141"/>
<feBlend mode="normal" in="SourceGraphic" in2="effect1_dropShadow_405_141" result="shape"/>
</filter>
</defs>
</svg>
