<svg width="1370" height="683" viewBox="0 0 1370 683" fill="none" xmlns="http://www.w3.org/2000/svg">
<g filter="url(#filter0_d_435_5209)">
<rect x="40" y="30" width="1290" height="603" rx="10" fill="white"/>
</g>
<mask id="mask0_435_5209" style="mask-type:alpha" maskUnits="userSpaceOnUse" x="40" y="30" width="1290" height="603">
<rect x="40" y="30" width="1290" height="603" rx="10" fill="#DDDDDD"/>
</mask>
<g mask="url(#mask0_435_5209)">
<path d="M640.664 712.789C660.214 693.124 679.731 671.871 698.584 651.228C774.461 568.474 852.961 482.849 951.542 482.849C1050.12 482.849 1128.62 568.413 1204.53 651.228C1223.42 671.81 1242.9 693.063 1262.45 712.789L1264.84 704.728C1245.36 685.123 1225.91 663.87 1207.06 643.349C1130.58 559.924 1051.52 473.688 951.542 473.688C851.567 473.688 772.503 559.924 696.028 643.288C677.208 663.809 657.724 685.062 638.241 704.667L640.63 712.729L640.664 712.789Z" fill="#F5F5F5"/>
<path d="M-446.748 713.033C-401.64 680.603 -359.32 634.432 -318.394 589.848C-242.483 507.094 -164.017 421.47 -65.4027 421.47C33.2114 421.47 111.678 507.033 187.555 589.787C228.481 634.432 270.835 680.603 315.91 713.033L317.735 704.483C273.025 672.358 230.871 626.37 190.078 581.909C113.603 498.483 34.5391 412.309 -65.4359 412.309C-165.411 412.309 -244.475 498.544 -320.95 581.97C-361.71 626.431 -403.864 672.358 -448.574 704.543L-446.748 713.094V713.033Z" fill="#F5F5F5"/>
<path d="M570.197 713.032C615.305 680.603 657.625 634.431 698.551 589.787C774.429 507.033 852.928 421.409 951.542 421.409C1050.16 421.409 1128.62 506.972 1204.5 589.726C1245.16 634.065 1287.22 679.931 1331.99 712.3L1333.82 703.749C1289.44 671.625 1247.55 626.003 1207.06 581.786C1130.58 498.422 1051.52 412.187 951.542 412.187C851.567 412.187 772.503 498.422 696.028 581.786C655.268 626.248 613.114 672.236 568.404 704.36L570.23 712.91L570.197 713.032Z" fill="#F5F5F5"/>
<path d="M443.07 697.948C543.045 697.948 622.109 611.713 698.584 528.349C774.462 445.595 852.961 359.97 951.542 359.97C1050.12 359.97 1128.62 445.533 1204.5 528.287C1245.16 572.626 1287.22 618.492 1331.99 650.861L1333.82 642.311C1289.44 610.186 1247.55 564.565 1207.06 520.348C1130.58 436.983 1051.52 350.748 951.542 350.748C851.567 350.748 772.503 436.983 696.028 520.348C620.151 603.102 541.651 688.726 443.07 688.726C344.489 688.726 265.99 603.163 190.112 520.348C113.637 436.983 34.5735 350.748 -65.4016 350.748V359.909C33.2125 359.909 111.679 445.472 187.556 528.287C264.031 611.652 343.095 697.887 443.07 697.887V697.948Z" fill="#F5F5F5"/>
<path d="M443.07 636.508C543.045 636.508 622.109 550.273 698.584 466.848C774.462 384.094 852.961 298.469 951.542 298.469C1050.12 298.469 1128.62 384.032 1204.5 466.848C1245.16 511.187 1287.22 557.052 1331.99 589.421L1333.82 580.871C1289.44 548.746 1247.55 503.064 1207.06 458.908C1130.58 375.482 1051.52 289.247 951.542 289.247C851.567 289.247 772.503 375.482 696.028 458.908C620.151 541.662 541.651 627.286 443.07 627.286C344.489 627.286 265.99 541.723 190.112 458.908C113.637 375.482 34.5735 289.247 -65.4016 289.247V298.408C33.2125 298.408 111.679 383.971 187.556 466.786C264.031 550.212 343.095 636.447 443.07 636.447V636.508Z" fill="#F5F5F5"/>
<path d="M443.07 575.069C543.045 575.069 622.109 488.834 698.584 405.469C774.462 322.715 852.961 237.091 951.542 237.091C1050.12 237.091 1128.62 322.654 1204.5 405.408C1245.16 449.747 1287.22 495.613 1331.99 527.982L1333.82 519.431C1289.44 487.307 1247.55 441.685 1207.06 397.469C1130.58 314.104 1051.52 227.869 951.542 227.869C851.567 227.869 772.503 314.104 696.028 397.469C620.151 480.223 541.651 565.847 443.07 565.847C344.489 565.847 265.99 480.284 190.112 397.469C113.637 314.104 34.5735 227.869 -65.4016 227.869V237.03C33.2125 237.03 111.679 322.593 187.556 405.408C264.031 488.773 343.095 575.008 443.07 575.008V575.069Z" fill="#F5F5F5"/>
<path d="M443.07 513.63C543.045 513.63 622.109 427.395 698.584 344.03C774.462 261.276 852.961 175.652 951.542 175.652C1050.12 175.652 1128.62 261.215 1204.5 343.969C1245.16 388.308 1287.22 434.174 1331.99 466.543L1333.82 457.992C1289.44 425.868 1247.55 380.246 1207.06 336.03C1130.58 252.665 1051.52 166.43 951.542 166.43C851.567 166.43 772.503 252.665 696.028 336.03C620.151 418.784 541.651 504.408 443.07 504.408C344.489 504.408 265.99 418.845 190.112 336.03C113.637 252.665 34.5735 166.43 -65.4016 166.43V175.591C33.2125 175.591 111.679 261.154 187.556 343.969C264.031 427.334 343.095 513.569 443.07 513.569V513.63Z" fill="#F5F5F5"/>
<path d="M443.07 452.191C543.045 452.191 622.109 365.956 698.584 282.591C774.462 199.837 852.961 114.274 951.542 114.274C1050.12 114.274 1128.62 199.837 1204.5 282.591C1245.16 326.93 1287.22 372.796 1331.99 405.165L1333.82 396.615C1289.44 364.49 1247.55 318.869 1207.06 274.652C1130.58 191.287 1051.52 105.052 951.542 105.052C851.567 105.052 772.503 191.287 696.028 274.652C620.151 357.406 541.651 442.969 443.07 442.969C344.489 442.969 265.99 357.406 190.112 274.652C113.637 191.226 34.5735 105.052 -65.4016 105.052V114.213C33.2125 114.213 111.679 199.776 187.556 282.53C264.031 365.895 343.095 452.13 443.07 452.13V452.191Z" fill="#F5F5F5"/>
<path d="M443.07 390.69C543.045 390.69 622.109 304.454 698.584 221.09C774.462 138.336 852.961 52.7113 951.542 52.7113C1050.12 52.7113 1128.62 138.275 1204.5 221.029C1245.16 265.368 1287.22 311.234 1331.99 343.602L1333.82 335.052C1289.44 302.928 1247.55 257.306 1207.06 213.089C1130.58 129.724 1051.52 43.4893 951.542 43.4893C851.567 43.4893 772.503 129.724 696.028 213.089C620.151 295.843 541.651 381.468 443.07 381.468C344.489 381.468 265.99 295.904 190.112 213.089C113.637 129.724 34.5735 43.4893 -65.4016 43.4893V52.6502C33.2125 52.6502 111.679 138.214 187.556 221.029C264.031 304.393 343.095 390.628 443.07 390.628V390.69Z" fill="#F5F5F5"/>
<path d="M448.472 332.801C548.447 332.801 627.511 246.566 703.986 163.201C779.863 80.447 858.363 -5.11629 956.944 -5.11629C1055.52 -5.11629 1134.02 80.447 1209.9 163.201C1250.56 207.54 1292.62 253.406 1337.39 285.775L1339.22 277.224C1294.84 245.1 1252.95 199.478 1212.46 155.262C1135.98 71.8968 1056.92 -14.3384 956.944 -14.3384C856.969 -14.3384 777.905 71.8968 701.43 155.262C625.552 238.016 547.053 323.579 448.472 323.579C349.891 323.579 271.391 238.016 195.514 155.262C119.039 71.8357 39.9749 -14.3384 -60.0002 -14.3384V-5.17742C38.6139 -5.17742 117.08 80.386 192.958 163.14C269.433 246.505 348.497 332.74 448.472 332.74V332.801Z" fill="#F5F5F5"/>
<path d="M443.07 267.811C543.045 267.811 622.109 181.576 698.584 98.2108C774.462 15.4568 852.961 -70.1065 951.542 -70.1065C1050.12 -70.1065 1128.62 15.4568 1204.5 98.2108C1245.16 142.55 1287.22 188.416 1331.99 220.784L1333.82 212.234C1289.44 180.11 1247.55 134.488 1207.06 90.2713C1130.58 6.90657 1051.52 -79.3286 951.542 -79.3286C851.567 -79.3286 772.503 6.90657 696.028 90.2713C620.151 173.025 541.651 258.65 443.07 258.65C344.489 258.65 265.99 173.086 190.112 90.2713C113.637 6.90657 34.5735 -79.3286 -65.4016 -79.3286V-70.1677C33.2125 -70.1677 111.679 15.3957 187.556 98.1497C264.031 181.514 343.095 267.75 443.07 267.75V267.811Z" fill="#F5F5F5"/>
<path d="M443.07 206.371C543.045 206.371 622.109 120.136 698.584 36.7709C774.462 -45.9831 852.961 -131.547 951.542 -131.547C1050.12 -131.547 1128.62 -45.9831 1204.5 36.7709C1245.16 81.1099 1287.22 126.976 1331.99 159.344L1333.82 150.794C1289.44 118.67 1247.55 73.0482 1207.06 28.8313C1130.58 -54.5334 1051.52 -140.769 951.542 -140.769C851.567 -140.769 772.503 -54.5334 696.028 28.8313C620.151 111.585 541.651 197.21 443.07 197.21C344.489 197.21 265.99 111.646 190.112 28.8313C113.637 -54.5334 34.5735 -140.769 -65.4016 -140.769V-131.608C33.2125 -131.608 111.679 -46.0443 187.556 36.7097C264.031 120.074 343.095 206.31 443.07 206.31V206.371Z" fill="#F5F5F5"/>
</g>
<defs>
<filter id="filter0_d_435_5209" x="0" y="0" width="1370" height="683" filterUnits="userSpaceOnUse" color-interpolation-filters="sRGB">
<feFlood flood-opacity="0" result="BackgroundImageFix"/>
<feColorMatrix in="SourceAlpha" type="matrix" values="0 0 0 0 0 0 0 0 0 0 0 0 0 0 0 0 0 0 127 0" result="hardAlpha"/>
<feOffset dy="10"/>
<feGaussianBlur stdDeviation="20"/>
<feComposite in2="hardAlpha" operator="out"/>
<feColorMatrix type="matrix" values="0 0 0 0 0.160784 0 0 0 0 0.160784 0 0 0 0 0.160784 0 0 0 0.1 0"/>
<feBlend mode="normal" in2="BackgroundImageFix" result="effect1_dropShadow_435_5209"/>
<feBlend mode="normal" in="SourceGraphic" in2="effect1_dropShadow_435_5209" result="shape"/>
</filter>
</defs>
</svg>
